<svg xmlns="http://www.w3.org/2000/svg" xmlns:xlink="http://www.w3.org/1999/xlink" width="100" height="100" version="1.1" viewBox="0 0 100 100"><title>Group 2</title><g id="partners.login.gov" fill="none" fill-rule="evenodd" stroke="none" stroke-width="1"><g id="Icons" transform="translate(-246.000000, -219.000000)"><g id="Group-2" transform="translate(246.000000, 217.000000)"><circle id="Oval-Copy" cx="50" cy="52" r="50" fill="#205493"/><path id="2" fill="#FFF" fill-rule="nonzero" d="M69.7625,74 L71.9375,60.8 L67.2125,59.825 L64.3625,66.125 L42.6125,68.15 C49.7125,64.1 55.5625,59.65 60.1625,54.8 C64.7625,49.95 67.0625,45.125 67.0625,40.325 C67.0625,37.825 66.4625,35.55 65.2625,33.5 C64.0625,31.45 62.225,29.8 59.75,28.55 C57.275,27.3 54.2125,26.675 50.5625,26.675 C48.0125,26.675 45.4875,27.1125 42.9875,27.9875 C40.4875,28.8625 38.3,29.95 36.425,31.25 C34.55,32.55 33.1125,33.825 32.1125,35.075 L32.1125,35.075 L34.9625,39.2 C36.6625,37.65 38.4,36.3875 40.175,35.4125 C41.95,34.4375 44.1375,33.95 46.7375,33.95 C49.4875,33.95 51.625,34.6875 53.15,36.1625 C54.675,37.6375 55.4375,39.6 55.4375,42.05 C55.4375,46.65 53.2125,51.425 48.7625,56.375 C44.3125,61.325 38.6125,65.85 31.6625,69.95 L31.6625,69.95 L33.2375,74 L69.7625,74 Z"/></g></g></g></svg>