<svg xmlns="http://www.w3.org/2000/svg" xmlns:xlink="http://www.w3.org/1999/xlink" width="100" height="100" version="1.1" viewBox="0 0 100 100"><title>Group 3</title><g id="partners.login.gov" fill="none" fill-rule="evenodd" stroke="none" stroke-width="1"><g id="Icons" transform="translate(-247.000000, -359.000000)"><g id="Group-3" transform="translate(247.000000, 352.000000)"><circle id="Oval-Copy-2" cx="50" cy="57" r="50" fill="#205493"/><path id="3" fill="#FFF" fill-rule="nonzero" d="M42.95,86 C48.35,86 53.075,85.175 57.125,83.525 C61.175,81.875 64.2875,79.6125 66.4625,76.7375 C68.6375,73.8625 69.7,70.625 69.65,67.025 C69.65,63.275 68.2625,60.275 65.4875,58.025 C62.7125,55.775 59.1,54.65 54.65,54.65 C53.65,54.65 52.9,54.675 52.4,54.725 C56.45,53.275 59.875,51.175 62.675,48.425 C65.475,45.675 66.875,42.5 66.875,38.9 C66.875,34.8 65.3875,31.7375 62.4125,29.7125 C59.4375,27.6875 55.575,26.675 50.825,26.675 C47.425,26.675 44.0875,27.35 40.8125,28.7 C37.5375,30.05 35.175,31.425 33.725,32.825 L33.725,32.825 L36.35,37.4 C37.7,36.3 39.3375,35.375 41.2625,34.625 C43.1875,33.875 45.25,33.5 47.45,33.5 C49.8,33.5 51.7375,34.075 53.2625,35.225 C54.7875,36.375 55.55,38.2 55.55,40.7 C55.55,42.95 54.75,45.0625 53.15,47.0375 C51.55,49.0125 49.3,50.65 46.4,51.95 C44.4,52.85 42.375,53.475 40.325,53.825 L40.325,53.825 L41.9,58.4 L46.4,57.275 C50.15,57.375 52.975,58.3 54.875,60.05 C56.775,61.8 57.725,64.275 57.725,67.475 C57.725,69.825 57.05,71.975 55.7,73.925 C54.35,75.875 52.3875,77.425 49.8125,78.575 C47.2375,79.725 44.2,80.3 40.7,80.3 C38.3,80.3 36.05,79.975 33.95,79.325 L33.95,79.325 L33.95,84.875 C35.05,85.175 36.4625,85.4375 38.1875,85.6625 C39.9125,85.8875 41.5,86 42.95,86 Z"/></g></g></g></svg>